<svg xmlns="http://www.w3.org/2000/svg" xmlns:xlink="http://www.w3.org/1999/xlink" viewBox="0 0 1080 1080" width="1080" height="1080" style="width: 100%; height: 100%; transform: translate3d(0px, 0px, 0px);" preserveAspectRatio="xMidYMid meet"><defs><clipPath id="__lottie_element_53"><rect width="1080" height="1080" x="0" y="0"></rect></clipPath></defs><g clip-path="url(#__lottie_element_53)"><g style="display: block;" transform="matrix(8.34000015258789,0,0,8.34000015258789,482.10211181640625,470.23431396484375)" opacity="1"><g opacity="1" transform="matrix(1,0,0,1,7.247000217437744,8.345999717712402)"><path fill="rgb(0,0,0)" fill-opacity="1" d=" M-6.997000217437744,6.5 C-6.997000217437744,6.5 -5.4720001220703125,6.5 -5.4720001220703125,6.5 C-5.4720001220703125,6.5 -5.4720001220703125,-6.500999927520752 -5.4720001220703125,-6.500999927520752 C-5.4720001220703125,-6.500999927520752 -6.997000217437744,-6.500999927520752 -6.997000217437744,-6.500999927520752 C-6.997000217437744,-6.500999927520752 -6.997000217437744,-8.095999717712402 -6.997000217437744,-8.095999717712402 C-6.997000217437744,-8.095999717712402 -1.121999979019165,-8.095999717712402 -1.121999979019165,-8.095999717712402 C4.013999938964844,-8.095999717712402 6.997000217437744,-4.718999862670898 6.997000217437744,-0.0010000000474974513 C6.997000217437744,5.019999980926514 4.013999938964844,8.095999717712402 -1.121999979019165,8.095999717712402 C-1.121999979019165,8.095999717712402 -6.997000217437744,8.095999717712402 -6.997000217437744,8.095999717712402 C-6.997000217437744,8.095999717712402 -6.997000217437744,6.5 -6.997000217437744,6.5z M-1.121999979019165,6.431000232696533 C2.7179999351501465,6.431000232696533 5.077000141143799,4.071000099182129 5.077000141143799,-0.0010000000474974513 C5.077000141143799,-3.9100000858306885 2.7639999389648438,-6.4079999923706055 -1.121999979019165,-6.4079999923706055 C-1.121999979019165,-6.4079999923706055 -3.5980000495910645,-6.4079999923706055 -3.5980000495910645,-6.4079999923706055 C-3.5980000495910645,-6.4079999923706055 -3.5980000495910645,6.431000232696533 -3.5980000495910645,6.431000232696533 C-3.5980000495910645,6.431000232696533 -1.121999979019165,6.431000232696533 -1.121999979019165,6.431000232696533z"></path></g></g><g style="display: block;" transform="matrix(-0.3420201539993286,-0.9396926164627075,0.9396926164627075,-0.3420201539993286,540,540)" opacity="1"><g opacity="1" transform="matrix(1.0130000114440918,0,0,1.0130000114440918,0,0)"><path stroke-linecap="butt" stroke-linejoin="miter" fill-opacity="0" stroke-miterlimit="4" stroke="rgb(0,0,0)" stroke-opacity="1" stroke-width="10" d=" M2.1982410805380416e-14,-359 C52.63214874267578,-359 117.64037322998047,-346.6177978515625 179.5,-310.9031066894531 C241.35963439941406,-275.1884460449219 284.5870361328125,-225.08078002929688 310.9031066894531,-179.5 C337.2192077636719,-133.91921997070312 359,-71.4293441772461 359,-7.971401316808624e-14 C359,71.4293441772461 337.2192077636719,133.91921997070312 310.9031066894531,179.5 C284.5870361328125,225.08078002929688 241.35963439941406,275.1884460449219 179.5,310.9031066894531 C117.64037322998047,346.6177978515625 52.63214874267578,359 1.8141044222375058e-13,359 C-52.63214874267578,359 -117.64037322998047,346.6177978515625 -179.5,310.9031066894531 C-241.35963439941406,275.1884460449219 -284.5870361328125,225.08078002929688 -310.9031066894531,179.5 C-337.2192077636719,133.91921997070312 -359,71.4293441772461 -359,3.6282088444750116e-13 C-359,-71.4293441772461 -337.2192077636719,-133.91921997070312 -310.9031066894531,-179.5 C-284.5870361328125,-225.08078002929688 -241.35963439941406,-275.1884460449219 -179.5,-310.9031066894531 C-117.64037322998047,-346.6177978515625 -52.63214874267578,-359 2.1982410805380416e-14,-359z"></path></g></g><g style="display: block;" transform="matrix(-0.7660444378852844,-0.6427876353263855,0.6427876353263855,-0.7660444378852844,541.1079711914062,540.530029296875)" opacity="1"><g opacity="1" transform="matrix(1.0130000114440918,0,0,1.0130000114440918,0,0)"><path stroke-linecap="butt" stroke-linejoin="miter" fill-opacity="0" stroke-miterlimit="4" stroke="rgb(0,0,0)" stroke-opacity="1" stroke-width="10" d=" M2.208650437833439e-14,-360.70001220703125 C84.9879379272461,-360.70001220703125 219.92034912109375,-337.6867980957031 311.1629333496094,-179.64999389648438 C402.405517578125,-21.613208770751953 354.86932373046875,106.748291015625 312.3753662109375,180.35000610351562 C269.88140869140625,253.9517059326172 182.48516845703125,359.29998779296875 1.0178140340093289e-13,359.29998779296875 C-182.48516845703125,359.29998779296875 -269.88140869140625,253.9517059326172 -312.3753662109375,180.35000610351562 C-354.86932373046875,106.748291015625 -402.405517578125,-21.613208770751953 -311.1629333496094,-179.64999389648438 C-219.92034912109375,-337.6867980957031 -84.9879379272461,-360.70001220703125 2.208650437833439e-14,-360.70001220703125z"></path></g></g></g></svg>