<svg xmlns="http://www.w3.org/2000/svg" xmlns:xlink="http://www.w3.org/1999/xlink" viewBox="0 0 1080 1080" width="1080" height="1080" style="width: 100%; height: 100%; transform: translate3d(0px, 0px, 0px);" preserveAspectRatio="xMidYMid meet"><defs><clipPath id="__lottie_element_107"><rect width="1080" height="1080" x="0" y="0"></rect></clipPath></defs><g clip-path="url(#__lottie_element_107)"><g style="display: block;" transform="matrix(9.34000015258789,0,0,9.34000015258789,429.7132873535156,445.7510681152344)" opacity="1"><g opacity="1" transform="matrix(1,0,0,1,5.709000110626221,8.345999717712402)"><path fill="rgb(0,0,0)" fill-opacity="1" d=" M-5.460000038146973,-8.095999717712402 C-5.460000038146973,-8.095999717712402 -0.3230000138282776,-8.095999717712402 -0.3230000138282776,-8.095999717712402 C2.984999895095825,-8.095999717712402 4.951000213623047,-6.199999809265137 4.951000213623047,-3.378000020980835 C4.951000213623047,-0.9710000157356262 3.632999897003174,0.925000011920929 1.1109999418258667,1.3880000114440918 C1.1109999418258667,1.3880000114440918 5.460000038146973,8.095999717712402 5.460000038146973,8.095999717712402 C5.460000038146973,8.095999717712402 3.193000078201294,8.095999717712402 3.193000078201294,8.095999717712402 C3.193000078201294,8.095999717712402 -0.8550000190734863,1.5490000247955322 -0.8550000190734863,1.5490000247955322 C-0.8550000190734863,1.5490000247955322 -3.5850000381469727,1.5490000247955322 -3.5850000381469727,1.5490000247955322 C-3.5850000381469727,1.5490000247955322 -3.5850000381469727,8.095999717712402 -3.5850000381469727,8.095999717712402 C-3.5850000381469727,8.095999717712402 -5.460000038146973,8.095999717712402 -5.460000038146973,8.095999717712402 C-5.460000038146973,8.095999717712402 -5.460000038146973,-8.095999717712402 -5.460000038146973,-8.095999717712402z M-0.3230000138282776,-0.11599999666213989 C1.5729999542236328,-0.11599999666213989 3.007999897003174,-1.2259999513626099 3.007999897003174,-3.3540000915527344 C3.007999897003174,-5.065999984741211 1.8509999513626099,-6.431000232696533 -0.4390000104904175,-6.431000232696533 C-0.4390000104904175,-6.431000232696533 -3.5850000381469727,-6.431000232696533 -3.5850000381469727,-6.431000232696533 C-3.5850000381469727,-6.431000232696533 -3.5850000381469727,-0.11599999666213989 -3.5850000381469727,-0.11599999666213989 C-3.5850000381469727,-0.11599999666213989 -0.3230000138282776,-0.11599999666213989 -0.3230000138282776,-0.11599999666213989z"></path></g><g opacity="1" transform="matrix(1,0,0,1,19.027000427246094,10.428000450134277)"><path fill="rgb(0,0,0)" fill-opacity="1" d=" M-5.770999908447266,0.04699999839067459 C-5.770999908447266,-3.7929999828338623 -3.134999990463257,-6.315000057220459 0.05700000002980232,-6.315000057220459 C3.688999891281128,-6.315000057220459 5.770999908447266,-3.7709999084472656 5.770999908447266,-0.16200000047683716 C5.770999908447266,-0.16200000047683716 5.770999908447266,0.5080000162124634 5.770999908447266,0.5080000162124634 C5.770999908447266,0.5080000162124634 -3.8980000019073486,0.5080000162124634 -3.8980000019073486,0.5080000162124634 C-3.875,3.191999912261963 -2.302000045776367,4.696000099182129 0.19599999487400055,4.696000099182129 C1.8849999904632568,4.696000099182129 3.434999942779541,3.7239999771118164 3.828000068664551,2.058000087738037 C3.828000068664551,2.058000087738037 5.609000205993652,2.4749999046325684 5.609000205993652,2.4749999046325684 C4.938000202178955,4.7179999351501465 2.9489998817443848,6.315000057220459 0.17299999296665192,6.315000057220459 C-3.4820001125335693,6.315000057220459 -5.770999908447266,3.747999906539917 -5.770999908447266,0.04699999839067459z M3.8980000019073486,-0.972000002861023 C3.7829999923706055,-3.4700000286102295 2.0460000038146973,-4.672999858856201 0.05700000002980232,-4.672999858856201 C-1.909000039100647,-4.672999858856201 -3.7130000591278076,-3.239000082015991 -3.8519999980926514,-0.972000002861023 C-3.8519999980926514,-0.972000002861023 3.8980000019073486,-0.972000002861023 3.8980000019073486,-0.972000002861023z"></path></g></g><g style="display: block;" transform="matrix(-0.7660444378852844,-0.6427876353263855,0.6427876353263855,-0.7660444378852844,540,540)" opacity="1"><g opacity="1" transform="matrix(1.0130000114440918,0,0,1.0130000114440918,0,0)"><path stroke-linecap="butt" stroke-linejoin="miter" fill-opacity="0" stroke-miterlimit="4" stroke="rgb(0,0,0)" stroke-opacity="1" stroke-width="10" d=" M179.5,-310.9031066894531 C225.08078002929688,-284.5870361328125 275.1884460449219,-241.35963439941406 310.9031066894531,-179.5 C346.6177978515625,-117.64037322998047 359,-52.63214874267578 359,-7.971401316808624e-14 C359,52.63214874267578 346.6177978515625,117.64037322998047 310.9031066894531,179.5 C275.1884460449219,241.35963439941406 225.08078002929688,284.5870361328125 179.5,310.9031066894531 C133.91921997070312,337.2192077636719 71.4293441772461,359 1.8141044222375058e-13,359 C-71.4293441772461,359 -133.91921997070312,337.2192077636719 -179.5,310.9031066894531 C-225.08078002929688,284.5870361328125 -275.1884460449219,241.35963439941406 -310.9031066894531,179.5 C-346.6177978515625,117.64037322998047 -359,52.63214874267578 -359,3.6282088444750116e-13 C-359,-52.63214874267578 -346.6177978515625,-117.64037322998047 -310.9031066894531,-179.5 C-275.1884460449219,-241.35963439941406 -225.08078002929688,-284.5870361328125 -179.5,-310.9031066894531 C-133.91921997070312,-337.2192077636719 -71.4293441772461,-359 -3.8480327323002494e-13,-359 C71.4293441772461,-359 133.91921997070312,-337.2192077636719 179.5,-310.9031066894531z"></path></g></g><g style="display: block;" transform="matrix(-0.7660444378852844,-0.6427876353263855,0.6427876353263855,-0.7660444378852844,540,540)" opacity="1"><g opacity="1" transform="matrix(1.0130000114440918,0,0,1.0130000114440918,0,0)"><path stroke-linecap="butt" stroke-linejoin="miter" fill-opacity="0" stroke-miterlimit="4" stroke="rgb(0,0,0)" stroke-opacity="1" stroke-width="10" d=" M312.3753662109375,-180.35000610351562 C354.86932373046875,-106.748291015625 402.405517578125,21.613208770751953 311.1629333496094,179.64999389648438 C219.92034912109375,337.6867980957031 84.9879379272461,360.70001220703125 1.0217799100310093e-13,360.70001220703125 C-84.9879379272461,360.70001220703125 -219.92034912109375,337.6867980957031 -311.1629333496094,179.64999389648438 C-402.405517578125,21.613208770751953 -354.86932373046875,-106.748291015625 -312.3753662109375,-180.35000610351562 C-269.88140869140625,-253.9517059326172 -182.48516845703125,-359.29998779296875 -3.8512484759438415e-13,-359.29998779296875 C182.48516845703125,-359.29998779296875 269.88140869140625,-253.9517059326172 312.3753662109375,-180.35000610351562z"></path></g></g></g></svg>