<svg xmlns="http://www.w3.org/2000/svg" xmlns:xlink="http://www.w3.org/1999/xlink" viewBox="0 0 1080 1080" width="1080" height="1080" style="width: 100%; height: 100%; transform: translate3d(0px, 0px, 0px);" preserveAspectRatio="xMidYMid meet"><defs><clipPath id="__lottie_element_75"><rect width="1080" height="1080" x="0" y="0"></rect></clipPath></defs><g clip-path="url(#__lottie_element_75)"><g style="display: block;" transform="matrix(9.34000015258789,0,0,9.34000015258789,431.7706298828125,448.5283203125)" opacity="1"><g opacity="1" transform="matrix(1,0,0,1,4.864999771118164,8.345999717712402)"><path fill="rgb(0,0,0)" fill-opacity="1" d=" M-4.614999771118164,-8.095999717712402 C-4.614999771118164,-8.095999717712402 4.614999771118164,-8.095999717712402 4.614999771118164,-8.095999717712402 C4.614999771118164,-8.095999717712402 4.614999771118164,-6.383999824523926 4.614999771118164,-6.383999824523926 C4.614999771118164,-6.383999824523926 -2.740999937057495,-6.383999824523926 -2.740999937057495,-6.383999824523926 C-2.740999937057495,-6.383999824523926 -2.740999937057495,-0.8320000171661377 -2.740999937057495,-0.8320000171661377 C-2.740999937057495,-0.8320000171661377 4.129000186920166,-0.8320000171661377 4.129000186920166,-0.8320000171661377 C4.129000186920166,-0.8320000171661377 4.129000186920166,0.8560000061988831 4.129000186920166,0.8560000061988831 C4.129000186920166,0.8560000061988831 -2.740999937057495,0.8560000061988831 -2.740999937057495,0.8560000061988831 C-2.740999937057495,0.8560000061988831 -2.740999937057495,8.095999717712402 -2.740999937057495,8.095999717712402 C-2.740999937057495,8.095999717712402 -4.614999771118164,8.095999717712402 -4.614999771118164,8.095999717712402 C-4.614999771118164,8.095999717712402 -4.614999771118164,-8.095999717712402 -4.614999771118164,-8.095999717712402z"></path></g><g opacity="1" transform="matrix(1,0,0,1,18.077999114990234,10.428000450134277)"><path fill="rgb(0,0,0)" fill-opacity="1" d=" M-6.28000020980835,-0.0010000000474974513 C-6.28000020980835,-3.632999897003174 -3.572999954223633,-6.314000129699707 0.012000000104308128,-6.314000129699707 C3.6440000534057617,-6.314000129699707 6.28000020980835,-3.6089999675750732 6.28000020980835,-0.0010000000474974513 C6.28000020980835,3.6080000400543213 3.5959999561309814,6.314000129699707 -0.012000000104308128,6.314000129699707 C-3.621000051498413,6.314000129699707 -6.28000020980835,3.6540000438690186 -6.28000020980835,-0.0010000000474974513z M4.4070000648498535,-0.0010000000474974513 C4.4070000648498535,-2.6610000133514404 2.578000068664551,-4.650000095367432 -0.012000000104308128,-4.650000095367432 C-2.6029999256134033,-4.650000095367432 -4.4070000648498535,-2.638000011444092 -4.4070000648498535,-0.0010000000474974513 C-4.4070000648498535,2.7060000896453857 -2.5799999237060547,4.64900016784668 -0.012000000104308128,4.64900016784668 C2.578000068664551,4.64900016784668 4.4070000648498535,2.683000087738037 4.4070000648498535,-0.0010000000474974513z"></path></g></g><g style="display: block;" transform="matrix(-0.08715574443340302,-0.9961947202682495,0.9961947202682495,-0.08715574443340302,540,540)" opacity="1"><g opacity="1" transform="matrix(1.0130000114440918,0,0,1.0130000114440918,0,0)"><path stroke-linecap="butt" stroke-linejoin="miter" fill-opacity="0" stroke-miterlimit="4" stroke="rgb(0,0,0)" stroke-opacity="1" stroke-width="10" d=" M2.1982410805380416e-14,-359 C78.94822692871094,-359 178.0890655517578,-329.61358642578125 253.85133361816406,-253.85133361816406 C329.61358642578125,-178.0890655517578 359,-78.94822692871094 359,0 C359,78.94822692871094 329.61358642578125,178.0890655517578 253.85133361816406,253.85133361816406 C178.0890655517578,329.61358642578125 78.94822692871094,359 2.1982410805380416e-14,359 C-78.94822692871094,359 -178.0890655517578,329.61358642578125 -253.85133361816406,253.85133361816406 C-329.61358642578125,178.0890655517578 -359,78.94822692871094 -359,4.396482161076083e-14 C-359,-78.94822692871094 -329.61358642578125,-178.0890655517578 -253.85133361816406,-253.85133361816406 C-178.0890655517578,-329.61358642578125 -78.94822692871094,-359 2.1982410805380416e-14,-359z"></path></g></g><g style="display: block;" transform="matrix(-0.7660444378852844,-0.6427876353263855,0.6427876353263855,-0.7660444378852844,540,540)" opacity="1"><g opacity="1" transform="matrix(1.0130000114440918,0,0,1.0130000114440918,0,0)"><path stroke-linecap="butt" stroke-linejoin="miter" fill-opacity="0" stroke-miterlimit="4" stroke="rgb(0,0,0)" stroke-opacity="1" stroke-width="10" d=" M2.1982410805380416e-14,-359 C78.94822692871094,-359 178.0890655517578,-329.61358642578125 253.85133361816406,-253.85133361816406 C329.61358642578125,-178.0890655517578 359,-78.94822692871094 359,0 C359,78.94822692871094 329.61358642578125,178.0890655517578 253.85133361816406,253.85133361816406 C178.0890655517578,329.61358642578125 78.94822692871094,359 2.1982410805380416e-14,359 C-78.94822692871094,359 -178.0890655517578,329.61358642578125 -253.85133361816406,253.85133361816406 C-329.61358642578125,178.0890655517578 -359,78.94822692871094 -359,4.396482161076083e-14 C-359,-78.94822692871094 -329.61358642578125,-178.0890655517578 -253.85133361816406,-253.85133361816406 C-178.0890655517578,-329.61358642578125 -78.94822692871094,-359 2.1982410805380416e-14,-359z"></path></g></g></g></svg>