<svg xmlns="http://www.w3.org/2000/svg" xmlns:xlink="http://www.w3.org/1999/xlink" viewBox="0 0 1080 1080" width="1080" height="1080" style="width: 100%; height: 100%; transform: translate3d(0px, 0px, 0px);" preserveAspectRatio="xMidYMid meet"><defs><clipPath id="__lottie_element_96"><rect width="1080" height="1080" x="0" y="0"></rect></clipPath></defs><g clip-path="url(#__lottie_element_96)"><g style="display: block;" transform="matrix(9.34000015258789,0,0,9.34000015258789,400.8439025878906,458.1833801269531)" opacity="1"><g opacity="1" transform="matrix(1,0,0,1,8.184000015258789,8.345999717712402)"><path fill="rgb(0,0,0)" fill-opacity="1" d=" M-7.934000015258789,-8.095999717712402 C-7.934000015258789,-8.095999717712402 -4.718999862670898,-8.095999717712402 -4.718999862670898,-8.095999717712402 C-4.718999862670898,-8.095999717712402 -0.0689999982714653,6.383999824523926 -0.0689999982714653,6.383999824523926 C-0.0689999982714653,6.383999824523926 0.0689999982714653,6.383999824523926 0.0689999982714653,6.383999824523926 C0.0689999982714653,6.383999824523926 4.71999979019165,-8.095999717712402 4.71999979019165,-8.095999717712402 C4.71999979019165,-8.095999717712402 7.934000015258789,-8.095999717712402 7.934000015258789,-8.095999717712402 C7.934000015258789,-8.095999717712402 7.934000015258789,8.095999717712402 7.934000015258789,8.095999717712402 C7.934000015258789,8.095999717712402 6.129000186920166,8.095999717712402 6.129000186920166,8.095999717712402 C6.129000186920166,8.095999717712402 6.129000186920166,-6.383999824523926 6.129000186920166,-6.383999824523926 C6.129000186920166,-6.383999824523926 5.991000175476074,-6.383999824523926 5.991000175476074,-6.383999824523926 C5.991000175476074,-6.383999824523926 1.2960000038146973,8.095999717712402 1.2960000038146973,8.095999717712402 C1.2960000038146973,8.095999717712402 -1.2960000038146973,8.095999717712402 -1.2960000038146973,8.095999717712402 C-1.2960000038146973,8.095999717712402 -5.991000175476074,-6.383999824523926 -5.991000175476074,-6.383999824523926 C-5.991000175476074,-6.383999824523926 -6.129000186920166,-6.383999824523926 -6.129000186920166,-6.383999824523926 C-6.129000186920166,-6.383999824523926 -6.129000186920166,8.095999717712402 -6.129000186920166,8.095999717712402 C-6.129000186920166,8.095999717712402 -7.934000015258789,8.095999717712402 -7.934000015258789,8.095999717712402 C-7.934000015258789,8.095999717712402 -7.934000015258789,-8.095999717712402 -7.934000015258789,-8.095999717712402z"></path></g><g opacity="1" transform="matrix(1,0,0,1,25.365999221801758,8.345999717712402)"><path fill="rgb(0,0,0)" fill-opacity="1" d=" M-4.613999843597412,-8.095999717712402 C-4.613999843597412,-8.095999717712402 4.613999843597412,-8.095999717712402 4.613999843597412,-8.095999717712402 C4.613999843597412,-8.095999717712402 4.613999843597412,-6.383999824523926 4.613999843597412,-6.383999824523926 C4.613999843597412,-6.383999824523926 -2.740999937057495,-6.383999824523926 -2.740999937057495,-6.383999824523926 C-2.740999937057495,-6.383999824523926 -2.740999937057495,-0.8320000171661377 -2.740999937057495,-0.8320000171661377 C-2.740999937057495,-0.8320000171661377 4.129000186920166,-0.8320000171661377 4.129000186920166,-0.8320000171661377 C4.129000186920166,-0.8320000171661377 4.129000186920166,0.8560000061988831 4.129000186920166,0.8560000061988831 C4.129000186920166,0.8560000061988831 -2.740999937057495,0.8560000061988831 -2.740999937057495,0.8560000061988831 C-2.740999937057495,0.8560000061988831 -2.740999937057495,8.095999717712402 -2.740999937057495,8.095999717712402 C-2.740999937057495,8.095999717712402 -4.613999843597412,8.095999717712402 -4.613999843597412,8.095999717712402 C-4.613999843597412,8.095999717712402 -4.613999843597412,-8.095999717712402 -4.613999843597412,-8.095999717712402z"></path></g></g><g style="display: block;" transform="matrix(-0.7660444378852844,-0.6427876353263855,0.6427876353263855,-0.7660444378852844,540,540)" opacity="1"><g opacity="1" transform="matrix(1.0130000114440918,0,0,1.0130000114440918,0,0)"><path stroke-linecap="butt" stroke-linejoin="miter" fill-opacity="0" stroke-miterlimit="4" stroke="rgb(0,0,0)" stroke-opacity="1" stroke-width="10" d=" M253.85133361816406,-253.85133361816406 C309.6761474609375,-198.02650451660156 359,-107.1440200805664 359,0 C359,107.1440200805664 309.6761474609375,198.02650451660156 253.85133361816406,253.85133361816406 C198.02650451660156,309.6761474609375 107.1440200805664,359 2.1982410805380416e-14,359 C-107.1440200805664,359 -198.02650451660156,309.6761474609375 -253.85133361816406,253.85133361816406 C-309.6761474609375,198.02650451660156 -359,107.1440200805664 -359,4.396482161076083e-14 C-359,-107.1440200805664 -309.6761474609375,-198.02650451660156 -253.85133361816406,-253.85133361816406 C-198.02650451660156,-309.6761474609375 -107.1440200805664,-359 -6.594722733394356e-14,-359 C107.1440200805664,-359 198.02650451660156,-309.6761474609375 253.85133361816406,-253.85133361816406z"></path></g></g><g style="display: block;" transform="matrix(-0.08802729845046997,-1.0061566829681396,1.0061566829681396,-0.08802729845046997,540,540)" opacity="1"><g opacity="1" transform="matrix(1.0130000114440918,0,0,1.0130000114440918,0,0)"><path stroke-linecap="butt" stroke-linejoin="miter" fill-opacity="0" stroke-miterlimit="4" stroke="rgb(0,0,0)" stroke-opacity="1" stroke-width="10" d=" M2.1982410805380416e-14,-359 C78.94822692871094,-359 178.0890655517578,-329.61358642578125 253.85133361816406,-253.85133361816406 C329.61358642578125,-178.0890655517578 359,-78.94822692871094 359,0 C359,78.94822692871094 329.61358642578125,178.0890655517578 253.85133361816406,253.85133361816406 C178.0890655517578,329.61358642578125 78.94822692871094,359 2.1982410805380416e-14,359 C-78.94822692871094,359 -178.0890655517578,329.61358642578125 -253.85133361816406,253.85133361816406 C-329.61358642578125,178.0890655517578 -359,78.94822692871094 -359,4.396482161076083e-14 C-359,-78.94822692871094 -329.61358642578125,-178.0890655517578 -253.85133361816406,-253.85133361816406 C-178.0890655517578,-329.61358642578125 -78.94822692871094,-359 2.1982410805380416e-14,-359z"></path></g></g></g></svg>