<svg xmlns="http://www.w3.org/2000/svg" xmlns:xlink="http://www.w3.org/1999/xlink" viewBox="0 0 1080 1080" width="1080" height="1080" style="width: 100%; height: 100%; transform: translate3d(0px, 0px, 0px);" preserveAspectRatio="xMidYMid meet"><defs><clipPath id="__lottie_element_22"><rect width="1080" height="1080" x="0" y="0"></rect></clipPath></defs><g clip-path="url(#__lottie_element_22)"><g style="display: block;" transform="matrix(8.34000015258789,0,0,8.34000015258789,442.4682312011719,447.60699462890625)" opacity="1"><g opacity="1" transform="matrix(1,0,0,1,4.992000102996826,8.345999717712402)"><path fill="rgb(0,0,0)" fill-opacity="1" d=" M-4.742000102996826,-8.095999717712402 C-4.742000102996826,-8.095999717712402 4.48799991607666,-8.095999717712402 4.48799991607666,-8.095999717712402 C4.48799991607666,-8.095999717712402 4.48799991607666,-6.383999824523926 4.48799991607666,-6.383999824523926 C4.48799991607666,-6.383999824523926 -2.868000030517578,-6.383999824523926 -2.868000030517578,-6.383999824523926 C-2.868000030517578,-6.383999824523926 -2.868000030517578,-0.9940000176429749 -2.868000030517578,-0.9940000176429749 C-2.868000030517578,-0.9940000176429749 3.4700000286102295,-0.9940000176429749 3.4700000286102295,-0.9940000176429749 C3.4700000286102295,-0.9940000176429749 3.4700000286102295,0.6940000057220459 3.4700000286102295,0.6940000057220459 C3.4700000286102295,0.6940000057220459 -2.868000030517578,0.6940000057220459 -2.868000030517578,0.6940000057220459 C-2.868000030517578,0.6940000057220459 -2.868000030517578,6.4079999923706055 -2.868000030517578,6.4079999923706055 C-2.868000030517578,6.4079999923706055 4.742000102996826,6.4079999923706055 4.742000102996826,6.4079999923706055 C4.742000102996826,6.4079999923706055 4.742000102996826,8.095999717712402 4.742000102996826,8.095999717712402 C4.742000102996826,8.095999717712402 -4.742000102996826,8.095999717712402 -4.742000102996826,8.095999717712402 C-4.742000102996826,8.095999717712402 -4.742000102996826,-8.095999717712402 -4.742000102996826,-8.095999717712402z"></path></g><g opacity="1" transform="matrix(1,0,0,1,17.812000274658203,10.579000473022461)"><path fill="rgb(0,0,0)" fill-opacity="1" d=" M-5.065999984741211,1.3980000019073486 C-5.065999984741211,1.3980000019073486 -5.065999984741211,-6.164999961853027 -5.065999984741211,-6.164999961853027 C-5.065999984741211,-6.164999961853027 -3.23799991607666,-6.164999961853027 -3.23799991607666,-6.164999961853027 C-3.23799991607666,-6.164999961853027 -3.23799991607666,1.3289999961853027 -3.23799991607666,1.3289999961853027 C-3.23799991607666,3.249000072479248 -1.8270000219345093,4.499000072479248 -0.13899999856948853,4.499000072479248 C1.7580000162124634,4.499000072479248 3.239000082015991,3.0409998893737793 3.239000082015991,1.0509999990463257 C3.239000082015991,1.0509999990463257 3.239000082015991,-6.164999961853027 3.239000082015991,-6.164999961853027 C3.239000082015991,-6.164999961853027 5.065999984741211,-6.164999961853027 5.065999984741211,-6.164999961853027 C5.065999984741211,-6.164999961853027 5.065999984741211,5.86299991607666 5.065999984741211,5.86299991607666 C5.065999984741211,5.86299991607666 3.239000082015991,5.86299991607666 3.239000082015991,5.86299991607666 C3.239000082015991,5.86299991607666 3.239000082015991,4.105000019073486 3.239000082015991,4.105000019073486 C3.239000082015991,4.105000019073486 3.0999999046325684,4.105000019073486 3.0999999046325684,4.105000019073486 C2.5910000801086426,5.191999912261963 1.2949999570846558,6.164999961853027 -0.578000009059906,6.164999961853027 C-3.378000020980835,6.164999961853027 -5.065999984741211,4.058000087738037 -5.065999984741211,1.3980000019073486z"></path></g></g><g style="display: block;" transform="matrix(-0.7660444378852844,-0.6427876353263855,0.6427876353263855,-0.7660444378852844,540,540)" opacity="1"><g opacity="1" transform="matrix(1.0130000114440918,0,0,1.0130000114440918,0,0)"><path stroke-linecap="butt" stroke-linejoin="miter" fill-opacity="0" stroke-miterlimit="4" stroke="rgb(0,0,0)" stroke-opacity="1" stroke-width="10" d=" M179.5,-310.9031066894531 C225.08078002929688,-284.5870361328125 275.1884460449219,-241.35963439941406 310.9031066894531,-179.5 C346.6177978515625,-117.64037322998047 359,-52.63214874267578 359,-7.971401316808624e-14 C359,52.63214874267578 346.6177978515625,117.64037322998047 310.9031066894531,179.5 C275.1884460449219,241.35963439941406 225.08078002929688,284.5870361328125 179.5,310.9031066894531 C133.91921997070312,337.2192077636719 71.4293441772461,359 1.8141044222375058e-13,359 C-71.4293441772461,359 -133.91921997070312,337.2192077636719 -179.5,310.9031066894531 C-225.08078002929688,284.5870361328125 -275.1884460449219,241.35963439941406 -310.9031066894531,179.5 C-346.6177978515625,117.64037322998047 -359,52.63214874267578 -359,3.6282088444750116e-13 C-359,-52.63214874267578 -346.6177978515625,-117.64037322998047 -310.9031066894531,-179.5 C-275.1884460449219,-241.35963439941406 -225.08078002929688,-284.5870361328125 -179.5,-310.9031066894531 C-133.91921997070312,-337.2192077636719 -71.4293441772461,-359 -3.8480327323002494e-13,-359 C71.4293441772461,-359 133.91921997070312,-337.2192077636719 179.5,-310.9031066894531z"></path></g></g><g style="display: block;" transform="matrix(-0.7660444378852844,-0.6427876353263855,0.6427876353263855,-0.7660444378852844,540,540)" opacity="1"><g opacity="1" transform="matrix(1.0130000114440918,0,0,1.0130000114440918,0,0)"><path stroke-linecap="butt" stroke-linejoin="miter" fill-opacity="0" stroke-miterlimit="4" stroke="rgb(0,0,0)" stroke-opacity="1" stroke-width="10" d=" M2.1982410805380416e-14,-359 C52.63214874267578,-359 117.64037322998047,-346.6177978515625 179.5,-310.9031066894531 C241.35963439941406,-275.1884460449219 284.5870361328125,-225.08078002929688 310.9031066894531,-179.5 C337.2192077636719,-133.91921997070312 359,-71.4293441772461 359,-7.971401316808624e-14 C359,71.4293441772461 337.2192077636719,133.91921997070312 310.9031066894531,179.5 C284.5870361328125,225.08078002929688 241.35963439941406,275.1884460449219 179.5,310.9031066894531 C117.64037322998047,346.6177978515625 52.63214874267578,359 1.8141044222375058e-13,359 C-52.63214874267578,359 -117.64037322998047,346.6177978515625 -179.5,310.9031066894531 C-241.35963439941406,275.1884460449219 -284.5870361328125,225.08078002929688 -310.9031066894531,179.5 C-337.2192077636719,133.91921997070312 -359,71.4293441772461 -359,3.6282088444750116e-13 C-359,-71.4293441772461 -337.2192077636719,-133.91921997070312 -310.9031066894531,-179.5 C-284.5870361328125,-225.08078002929688 -241.35963439941406,-275.1884460449219 -179.5,-310.9031066894531 C-117.64037322998047,-346.6177978515625 -52.63214874267578,-359 2.1982410805380416e-14,-359z"></path></g></g></g></svg>