<svg xmlns="http://www.w3.org/2000/svg" xmlns:xlink="http://www.w3.org/1999/xlink" viewBox="0 0 1080 1080" width="1080" height="1080" style="width: 100%; height: 100%; transform: translate3d(0px, 0px, 0px);" preserveAspectRatio="xMidYMid meet"><defs><clipPath id="__lottie_element_32"><rect width="1080" height="1080" x="0" y="0"></rect></clipPath></defs><g clip-path="url(#__lottie_element_32)"><g style="display: block;" transform="matrix(8.34000015258789,0,0,8.34000015258789,427.31158447265625,464.1583557128906)" opacity="1"><g opacity="1" transform="matrix(1,0,0,1,8.102999687194824,8.647000312805176)"><path fill="rgb(0,0,0)" fill-opacity="1" d=" M-7.854000091552734,-0.0010000000474974513 C-7.854000091552734,-4.765999794006348 -4.336999893188477,-8.397000312805176 0.35899999737739563,-8.397000312805176 C3.9670000076293945,-8.397000312805176 6.789999961853027,-6.199999809265137 7.854000091552734,-3.1470000743865967 C7.854000091552734,-3.1470000743865967 5.771999835968018,-3.1470000743865967 5.771999835968018,-3.1470000743865967 C4.915999889373779,-5.251999855041504 2.8570001125335693,-6.638999938964844 0.35899999737739563,-6.638999938964844 C-3.2269999980926514,-6.638999938964844 -5.910999774932861,-3.7939999103546143 -5.910999774932861,-0.0010000000474974513 C-5.910999774932861,3.8389999866485596 -3.2269999980926514,6.638999938964844 0.35899999737739563,6.638999938964844 C2.8570001125335693,6.638999938964844 4.961999893188477,5.27400016784668 5.771999835968018,3.1459999084472656 C5.771999835968018,3.1459999084472656 7.854000091552734,3.1459999084472656 7.854000091552734,3.1459999084472656 C6.835999965667725,6.269999980926514 3.944000005722046,8.397000312805176 0.335999995470047,8.397000312805176 C-4.360000133514404,8.397000312805176 -7.854000091552734,4.810999870300293 -7.854000091552734,-0.0010000000474974513z"></path></g><g opacity="1" transform="matrix(1,0,0,1,23.746000289916992,8.645999908447266)"><path fill="rgb(0,0,0)" fill-opacity="1" d=" M-4.429999828338623,-8.095999717712402 C-4.429999828338623,-8.095999717712402 -2.555999994277954,-8.095999717712402 -2.555999994277954,-8.095999717712402 C-2.555999994277954,-8.095999717712402 -2.555999994277954,6.4079999923706055 -2.555999994277954,6.4079999923706055 C-2.555999994277954,6.4079999923706055 4.429999828338623,6.4079999923706055 4.429999828338623,6.4079999923706055 C4.429999828338623,6.4079999923706055 4.429999828338623,8.095999717712402 4.429999828338623,8.095999717712402 C4.429999828338623,8.095999717712402 -4.429999828338623,8.095999717712402 -4.429999828338623,8.095999717712402 C-4.429999828338623,8.095999717712402 -4.429999828338623,-8.095999717712402 -4.429999828338623,-8.095999717712402z"></path></g></g><g style="display: block;" transform="matrix(-0.7660444378852844,-0.6427876353263855,0.6427876353263855,-0.7660444378852844,540,540)" opacity="1"><g opacity="1" transform="matrix(1.0130000114440918,0,0,1.0130000114440918,0,0)"><path stroke-linecap="butt" stroke-linejoin="miter" fill-opacity="0" stroke-miterlimit="4" stroke="rgb(0,0,0)" stroke-opacity="1" stroke-width="10" d=" M2.1982410805380416e-14,-359 C78.94822692871094,-359 178.0890655517578,-329.61358642578125 253.85133361816406,-253.85133361816406 C329.61358642578125,-178.0890655517578 359,-78.94822692871094 359,0 C359,78.94822692871094 329.61358642578125,178.0890655517578 253.85133361816406,253.85133361816406 C178.0890655517578,329.61358642578125 78.94822692871094,359 2.1982410805380416e-14,359 C-78.94822692871094,359 -178.0890655517578,329.61358642578125 -253.85133361816406,253.85133361816406 C-329.61358642578125,178.0890655517578 -359,78.94822692871094 -359,4.396482161076083e-14 C-359,-78.94822692871094 -329.61358642578125,-178.0890655517578 -253.85133361816406,-253.85133361816406 C-178.0890655517578,-329.61358642578125 -78.94822692871094,-359 2.1982410805380416e-14,-359z"></path></g></g><g style="display: block;" transform="matrix(-0.7660444378852844,-0.6427876353263855,0.6427876353263855,-0.7660444378852844,540,540)" opacity="1"><g opacity="1" transform="matrix(1.0130000114440918,0,0,1.0130000114440918,0,0)"><path stroke-linecap="butt" stroke-linejoin="miter" fill-opacity="0" stroke-miterlimit="4" stroke="rgb(0,0,0)" stroke-opacity="1" stroke-width="10" d=" M136.22476196289062,-332.1502990722656 C172.74659729003906,-317.1716003417969 214.95054626464844,-292.48455810546875 252.96368408203125,-254.73590087890625 C290.976806640625,-216.9872283935547 315.9578857421875,-174.95663452148438 331.191162109375,-138.54026794433594 C346.4244689941406,-102.1239013671875 358.8108215332031,-54.824825286865234 358.997802734375,-1.2531439065933228 C359.184814453125,52.318538665771484 347.1289978027344,99.70292663574219 332.1502990722656,136.22476196289062 C317.1716003417969,172.74659729003906 292.48455810546875,214.95054626464844 254.73590087890625,252.96368408203125 C216.9872283935547,290.976806640625 174.95663452148438,315.9578857421875 138.54026794433594,331.191162109375 C102.1239013671875,346.4244689941406 54.824825286865234,358.8108215332031 1.2531439065933228,358.997802734375 C-52.318538665771484,359.184814453125 -99.70292663574219,347.1289978027344 -136.22476196289062,332.1502990722656 C-172.74659729003906,317.1716003417969 -214.95054626464844,292.48455810546875 -252.96368408203125,254.73590087890625 C-290.976806640625,216.9872283935547 -315.9578857421875,174.95663452148438 -331.191162109375,138.54026794433594 C-346.4244689941406,102.1239013671875 -358.8108215332031,54.824825286865234 -358.997802734375,1.2531439065933228 C-359.184814453125,-52.318538665771484 -347.1289978027344,-99.70292663574219 -332.1502990722656,-136.22476196289062 C-317.1716003417969,-172.74659729003906 -292.48455810546875,-214.95054626464844 -254.73590087890625,-252.96368408203125 C-216.9872283935547,-290.976806640625 -174.95663452148438,-315.9578857421875 -138.54026794433594,-331.191162109375 C-102.1239013671875,-346.4244689941406 -54.824825286865234,-358.8108215332031 -1.2531439065933228,-358.997802734375 C52.318538665771484,-359.184814453125 99.70292663574219,-347.1289978027344 136.22476196289062,-332.1502990722656z"></path></g></g></g></svg>