<svg xmlns="http://www.w3.org/2000/svg" xmlns:xlink="http://www.w3.org/1999/xlink" viewBox="0 0 1080 1080" width="1080" height="1080" style="width: 100%; height: 100%; transform: translate3d(0px, 0px, 0px);" preserveAspectRatio="xMidYMid meet"><defs><clipPath id="__lottie_element_64"><rect width="1080" height="1080" x="0" y="0"></rect></clipPath></defs><g clip-path="url(#__lottie_element_64)"><g style="display: block;" transform="matrix(8.34000015258789,0,0,8.34000015258789,440.20196533203125,459.0920715332031)" opacity="1"><g opacity="1" transform="matrix(1,0,0,1,4.992000102996826,8.345999717712402)"><path fill="rgb(0,0,0)" fill-opacity="1" d=" M-4.742000102996826,-8.095999717712402 C-4.742000102996826,-8.095999717712402 4.486999988555908,-8.095999717712402 4.486999988555908,-8.095999717712402 C4.486999988555908,-8.095999717712402 4.486999988555908,-6.383999824523926 4.486999988555908,-6.383999824523926 C4.486999988555908,-6.383999824523926 -2.868000030517578,-6.383999824523926 -2.868000030517578,-6.383999824523926 C-2.868000030517578,-6.383999824523926 -2.868000030517578,-0.9940000176429749 -2.868000030517578,-0.9940000176429749 C-2.868000030517578,-0.9940000176429749 3.4700000286102295,-0.9940000176429749 3.4700000286102295,-0.9940000176429749 C3.4700000286102295,-0.9940000176429749 3.4700000286102295,0.6940000057220459 3.4700000286102295,0.6940000057220459 C3.4700000286102295,0.6940000057220459 -2.868000030517578,0.6940000057220459 -2.868000030517578,0.6940000057220459 C-2.868000030517578,0.6940000057220459 -2.868000030517578,6.4079999923706055 -2.868000030517578,6.4079999923706055 C-2.868000030517578,6.4079999923706055 4.742000102996826,6.4079999923706055 4.742000102996826,6.4079999923706055 C4.742000102996826,6.4079999923706055 4.742000102996826,8.095999717712402 4.742000102996826,8.095999717712402 C4.742000102996826,8.095999717712402 -4.742000102996826,8.095999717712402 -4.742000102996826,8.095999717712402 C-4.742000102996826,8.095999717712402 -4.742000102996826,-8.095999717712402 -4.742000102996826,-8.095999717712402z"></path></g><g opacity="1" transform="matrix(1,0,0,1,18.042999267578125,10.277999877929688)"><path fill="rgb(0,0,0)" fill-opacity="1" d=" M-5.065999984741211,-5.863999843597412 C-5.065999984741211,-5.863999843597412 -3.239000082015991,-5.863999843597412 -3.239000082015991,-5.863999843597412 C-3.239000082015991,-5.863999843597412 -3.239000082015991,-4.105000019073486 -3.239000082015991,-4.105000019073486 C-3.239000082015991,-4.105000019073486 -3.0999999046325684,-4.105000019073486 -3.0999999046325684,-4.105000019073486 C-2.5910000801086426,-5.192999839782715 -1.2949999570846558,-6.164999961853027 0.578000009059906,-6.164999961853027 C3.377000093460083,-6.164999961853027 5.065999984741211,-4.059999942779541 5.065999984741211,-1.399999976158142 C5.065999984741211,-1.399999976158142 5.065999984741211,6.164999961853027 5.065999984741211,6.164999961853027 C5.065999984741211,6.164999961853027 3.23799991607666,6.164999961853027 3.23799991607666,6.164999961853027 C3.23799991607666,6.164999961853027 3.23799991607666,-1.284000039100647 3.23799991607666,-1.284000039100647 C3.23799991607666,-3.2039999961853027 1.8279999494552612,-4.453999996185303 0.13899999856948853,-4.453999996185303 C-1.7580000162124634,-4.453999996185303 -3.239000082015991,-2.996000051498413 -3.239000082015991,-1.0069999694824219 C-3.239000082015991,-1.0069999694824219 -3.239000082015991,6.164999961853027 -3.239000082015991,6.164999961853027 C-3.239000082015991,6.164999961853027 -5.065999984741211,6.164999961853027 -5.065999984741211,6.164999961853027 C-5.065999984741211,6.164999961853027 -5.065999984741211,-5.863999843597412 -5.065999984741211,-5.863999843597412z"></path></g></g><g style="display: block;" transform="matrix(-0.7660444378852844,-0.6427876353263855,0.6427876353263855,-0.7660444378852844,540,540)" opacity="1"><g opacity="1" transform="matrix(1.0130000114440918,0,0,1.0130000114440918,0,0)"><path stroke-linecap="butt" stroke-linejoin="miter" fill-opacity="0" stroke-miterlimit="4" stroke="rgb(0,0,0)" stroke-opacity="1" stroke-width="10" d=" M2.1982410805380416e-14,-359 C39.47411346435547,-359 87.88926696777344,-352.1738586425781 137.3833465576172,-331.6727600097656 C186.87744140625,-311.171630859375 225.9389190673828,-281.76373291015625 253.85133361816406,-253.85133361816406 C281.76373291015625,-225.9389190673828 311.171630859375,-186.87744140625 331.6727600097656,-137.3833465576172 C352.1738586425781,-87.88926696777344 359,-39.47411346435547 359,0 C359,39.47411346435547 352.1738586425781,87.88926696777344 331.6727600097656,137.3833465576172 C311.171630859375,186.87744140625 281.76373291015625,225.9389190673828 253.85133361816406,253.85133361816406 C225.9389190673828,281.76373291015625 186.87744140625,311.171630859375 137.3833465576172,331.6727600097656 C87.88926696777344,352.1738586425781 39.47411346435547,359 2.1982410805380416e-14,359 C-39.47411346435547,359 -87.88926696777344,352.1738586425781 -137.3833465576172,331.6727600097656 C-186.87744140625,311.171630859375 -225.9389190673828,281.76373291015625 -253.85133361816406,253.85133361816406 C-281.76373291015625,225.9389190673828 -311.171630859375,186.87744140625 -331.6727600097656,137.3833465576172 C-352.1738586425781,87.88926696777344 -359,39.47411346435547 -359,4.396482161076083e-14 C-359,-39.47411346435547 -352.1738586425781,-87.88926696777344 -331.6727600097656,-137.3833465576172 C-311.171630859375,-186.87744140625 -281.76373291015625,-225.9389190673828 -253.85133361816406,-253.85133361816406 C-225.9389190673828,-281.76373291015625 -186.87744140625,-311.171630859375 -137.3833465576172,-331.6727600097656 C-87.88926696777344,-352.1738586425781 -39.47411346435547,-359 2.1982410805380416e-14,-359z"></path></g></g><g style="display: block;" transform="matrix(-0.7660444378852844,-0.6427876353263855,0.6427876353263855,-0.7660444378852844,540,540)" opacity="1"><g opacity="1" transform="matrix(1.0130000114440918,0,0,1.0130000114440918,0,0)"><path stroke-linecap="butt" stroke-linejoin="miter" fill-opacity="0" stroke-miterlimit="4" stroke="rgb(0,0,0)" stroke-opacity="1" stroke-width="10" d=" M2.1982410805380416e-14,-359 C78.94822692871094,-359 178.0890655517578,-329.61358642578125 253.85133361816406,-253.85133361816406 C329.61358642578125,-178.0890655517578 359,-78.94822692871094 359,0 C359,78.94822692871094 329.61358642578125,178.0890655517578 253.85133361816406,253.85133361816406 C178.0890655517578,329.61358642578125 78.94822692871094,359 2.1982410805380416e-14,359 C-78.94822692871094,359 -178.0890655517578,329.61358642578125 -253.85133361816406,253.85133361816406 C-329.61358642578125,178.0890655517578 -359,78.94822692871094 -359,4.396482161076083e-14 C-359,-78.94822692871094 -329.61358642578125,-178.0890655517578 -253.85133361816406,-253.85133361816406 C-178.0890655517578,-329.61358642578125 -78.94822692871094,-359 2.1982410805380416e-14,-359z"></path></g></g></g></svg>