<svg xmlns="http://www.w3.org/2000/svg" xmlns:xlink="http://www.w3.org/1999/xlink" viewBox="0 0 1080 1080" width="1080" height="1080" style="width: 100%; height: 100%; transform: translate3d(0px, 0px, 0px);" preserveAspectRatio="xMidYMid meet"><defs><clipPath id="__lottie_element_12"><rect width="1080" height="1080" x="0" y="0"></rect></clipPath></defs><g clip-path="url(#__lottie_element_12)"><g style="display: block;" transform="matrix(8.34000015258789,0,0,8.34000015258789,419.75982666015625,453.8559875488281)" opacity="1"><g opacity="1" transform="matrix(1,0,0,1,7.583000183105469,8.347000122070312)"><path fill="rgb(0,0,0)" fill-opacity="1" d=" M3.9560000896453857,4.256999969482422 C3.9560000896453857,4.256999969482422 -3.9560000896453857,4.256999969482422 -3.9560000896453857,4.256999969482422 C-3.9560000896453857,4.256999969482422 -5.367000102996826,8.095999717712402 -5.367000102996826,8.095999717712402 C-5.367000102996826,8.095999717712402 -7.333000183105469,8.095999717712402 -7.333000183105469,8.095999717712402 C-7.333000183105469,8.095999717712402 -1.2949999570846558,-8.095999717712402 -1.2949999570846558,-8.095999717712402 C-1.2949999570846558,-8.095999717712402 1.3650000095367432,-8.095999717712402 1.3650000095367432,-8.095999717712402 C1.3650000095367432,-8.095999717712402 7.333000183105469,8.095999717712402 7.333000183105469,8.095999717712402 C7.333000183105469,8.095999717712402 5.367000102996826,8.095999717712402 5.367000102996826,8.095999717712402 C5.367000102996826,8.095999717712402 3.9560000896453857,4.256999969482422 3.9560000896453857,4.256999969482422z M3.3310000896453857,2.5439999103546143 C3.3310000896453857,2.5439999103546143 0.07000000029802322,-6.383999824523926 0.07000000029802322,-6.383999824523926 C0.07000000029802322,-6.383999824523926 -0.0689999982714653,-6.383999824523926 -0.0689999982714653,-6.383999824523926 C-0.0689999982714653,-6.383999824523926 -3.3310000896453857,2.5439999103546143 -3.3310000896453857,2.5439999103546143 C-3.3310000896453857,2.5439999103546143 3.3310000896453857,2.5439999103546143 3.3310000896453857,2.5439999103546143z"></path></g><g opacity="1" transform="matrix(1,0,0,1,22.5310001373291,10.277999877929688)"><path fill="rgb(0,0,0)" fill-opacity="1" d=" M-5.065999984741211,-5.863999843597412 C-5.065999984741211,-5.863999843597412 -3.239000082015991,-5.863999843597412 -3.239000082015991,-5.863999843597412 C-3.239000082015991,-5.863999843597412 -3.239000082015991,-4.105000019073486 -3.239000082015991,-4.105000019073486 C-3.239000082015991,-4.105000019073486 -3.0999999046325684,-4.105000019073486 -3.0999999046325684,-4.105000019073486 C-2.5910000801086426,-5.192999839782715 -1.2949999570846558,-6.164000034332275 0.578000009059906,-6.164000034332275 C3.377000093460083,-6.164000034332275 5.065999984741211,-4.059000015258789 5.065999984741211,-1.3990000486373901 C5.065999984741211,-1.3990000486373901 5.065999984741211,6.164000034332275 5.065999984741211,6.164000034332275 C5.065999984741211,6.164000034332275 3.23799991607666,6.164000034332275 3.23799991607666,6.164000034332275 C3.23799991607666,6.164000034332275 3.23799991607666,-1.284000039100647 3.23799991607666,-1.284000039100647 C3.23799991607666,-3.2039999961853027 1.8279999494552612,-4.453000068664551 0.13899999856948853,-4.453000068664551 C-1.7580000162124634,-4.453000068664551 -3.239000082015991,-2.994999885559082 -3.239000082015991,-1.00600004196167 C-3.239000082015991,-1.00600004196167 -3.239000082015991,6.164000034332275 -3.239000082015991,6.164000034332275 C-3.239000082015991,6.164000034332275 -5.065999984741211,6.164000034332275 -5.065999984741211,6.164000034332275 C-5.065999984741211,6.164000034332275 -5.065999984741211,-5.863999843597412 -5.065999984741211,-5.863999843597412z"></path></g></g><g style="display: block;" transform="matrix(-0.7660444378852844,-0.6427876353263855,0.6427876353263855,-0.7660444378852844,540,540)" opacity="1"><g opacity="1" transform="matrix(1.0130000114440918,0,0,1.0130000114440918,0,0)"><path stroke-linecap="butt" stroke-linejoin="miter" fill-opacity="0" stroke-miterlimit="4" stroke="rgb(0,0,0)" stroke-opacity="1" stroke-width="10" d=" M110.34102630615234,-341.6224060058594 C140.39170837402344,-331.9162902832031 175.79122924804688,-315.9354553222656 210.50767517089844,-290.8049621582031 C245.22412109375,-265.6744384765625 271.46197509765625,-237.0372314453125 290.068359375,-211.52149963378906 C308.6747741699219,-186.00575256347656 327.9202880859375,-152.26966857910156 341.2351379394531,-111.5328369140625 C354.54998779296875,-70.79600524902344 358.9443359375,-32.205814361572266 358.99945068359375,-0.6265729069709778 C359.0545654296875,30.952669143676758 354.7949523925781,69.55796813964844 341.6224060058594,110.34102630615234 C328.4498291015625,151.12408447265625 309.3221740722656,184.92713928222656 290.8049621582031,210.50767517089844 C272.2877197265625,236.0882110595703 246.15000915527344,264.81683349609375 211.52149963378906,290.068359375 C176.89297485351562,315.3199157714844 141.54945373535156,331.4241943359375 111.5328369140625,341.2351379394531 C81.51622772216797,351.04608154296875 43.48411560058594,358.9246520996094 0.6265729069709778,358.99945068359375 C-42.2309684753418,359.0742492675781 -80.29035186767578,351.3284912109375 -110.34102630615234,341.6224060058594 C-140.39170837402344,331.9162902832031 -175.79122924804688,315.9354553222656 -210.50767517089844,290.8049621582031 C-245.22412109375,265.6744384765625 -271.46197509765625,237.0372314453125 -290.068359375,211.52149963378906 C-308.6747741699219,186.00575256347656 -327.9202880859375,152.26966857910156 -341.2351379394531,111.5328369140625 C-354.54998779296875,70.79600524902344 -358.9443359375,32.205814361572266 -358.99945068359375,0.6265729069709778 C-359.0545654296875,-30.952669143676758 -354.7949523925781,-69.55796813964844 -341.6224060058594,-110.34102630615234 C-328.4498291015625,-151.12408447265625 -309.3221740722656,-184.92713928222656 -290.8049621582031,-210.50767517089844 C-272.2877197265625,-236.0882110595703 -246.15000915527344,-264.81683349609375 -211.52149963378906,-290.068359375 C-176.89297485351562,-315.3199157714844 -141.54945373535156,-331.4241943359375 -111.5328369140625,-341.2351379394531 C-81.51622772216797,-351.04608154296875 -43.48411560058594,-358.9246520996094 -0.6265729069709778,-358.99945068359375 C42.2309684753418,-359.0742492675781 80.29035186767578,-351.3284912109375 110.34102630615234,-341.6224060058594z"></path></g></g><g style="display: block;" transform="matrix(-0.7660444378852844,-0.6427876353263855,0.6427876353263855,-0.7660444378852844,540,540)" opacity="1"><g opacity="1" transform="matrix(1.0130000114440918,0,0,1.0130000114440918,0,0)"><path stroke-linecap="butt" stroke-linejoin="miter" fill-opacity="0" stroke-miterlimit="4" stroke="rgb(0,0,0)" stroke-opacity="1" stroke-width="10" d=" M2.1982410805380416e-14,-359 C31.579288482666016,-359 70.17709350585938,-354.6730041503906 110.93710327148438,-341.4292907714844 C151.69711303710938,-328.185546875 185.4667205810547,-308.9989318847656 211.01490783691406,-290.4371032714844 C236.56307983398438,-271.8752746582031 265.24603271484375,-245.68743896484375 290.4371032714844,-211.01490783691406 C315.628173828125,-176.34237670898438 331.6707458496094,-140.97079467773438 341.4292907714844,-110.93710327148438 C351.1878356933594,-80.90341186523438 359,-42.857608795166016 359,0 C359,42.857608795166016 351.1878356933594,80.90341186523438 341.4292907714844,110.93710327148438 C331.6707458496094,140.97079467773438 315.628173828125,176.34237670898438 290.4371032714844,211.01490783691406 C265.24603271484375,245.68743896484375 236.56307983398438,271.8752746582031 211.01490783691406,290.4371032714844 C185.4667205810547,308.9989318847656 151.69711303710938,328.185546875 110.93710327148438,341.4292907714844 C70.17709350585938,354.6730041503906 31.579288482666016,359 2.1982410805380416e-14,359 C-31.579288482666016,359 -70.17709350585938,354.6730041503906 -110.93710327148438,341.4292907714844 C-151.69711303710938,328.185546875 -185.4667205810547,308.9989318847656 -211.01490783691406,290.4371032714844 C-236.56307983398438,271.8752746582031 -265.24603271484375,245.68743896484375 -290.4371032714844,211.01490783691406 C-315.628173828125,176.34237670898438 -331.6707458496094,140.97079467773438 -341.4292907714844,110.93710327148438 C-351.1878356933594,80.90341186523438 -359,42.857608795166016 -359,4.396482161076083e-14 C-359,-42.857608795166016 -351.1878356933594,-80.90341186523438 -341.4292907714844,-110.93710327148438 C-331.6707458496094,-140.97079467773438 -315.628173828125,-176.34237670898438 -290.4371032714844,-211.01490783691406 C-265.24603271484375,-245.68743896484375 -236.56307983398438,-271.8752746582031 -211.01490783691406,-290.4371032714844 C-185.4667205810547,-308.9989318847656 -151.69711303710938,-328.185546875 -110.93710327148438,-341.4292907714844 C-70.17709350585938,-354.6730041503906 -31.579288482666016,-359 2.1982410805380416e-14,-359z"></path></g></g></g></svg>