<svg xmlns="http://www.w3.org/2000/svg" xmlns:xlink="http://www.w3.org/1999/xlink" viewBox="0 0 1080 1080" width="1080" height="1080" style="width: 100%; height: 100%; transform: translate3d(0px, 0px, 0px);" preserveAspectRatio="xMidYMid meet"><defs><clipPath id="__lottie_element_85"><rect width="1080" height="1080" x="0" y="0"></rect></clipPath></defs><g clip-path="url(#__lottie_element_85)"><g style="display: block;" transform="matrix(9.34000015258789,0,0,9.34000015258789,435.1247863769531,446.8303527832031)" opacity="1"><g opacity="1" transform="matrix(1,0,0,1,5.709000110626221,8.347000122070312)"><path fill="rgb(0,0,0)" fill-opacity="1" d=" M-5.459000110626221,-8.095999717712402 C-5.459000110626221,-8.095999717712402 -0.3240000009536743,-8.095999717712402 -0.3240000009536743,-8.095999717712402 C2.9839999675750732,-8.095999717712402 4.949999809265137,-6.199999809265137 4.949999809265137,-3.378000020980835 C4.949999809265137,-0.9710000157356262 3.631999969482422,0.925000011920929 1.1100000143051147,1.3880000114440918 C1.1100000143051147,1.3880000114440918 5.459000110626221,8.095999717712402 5.459000110626221,8.095999717712402 C5.459000110626221,8.095999717712402 3.191999912261963,8.095999717712402 3.191999912261963,8.095999717712402 C3.191999912261963,8.095999717712402 -0.8560000061988831,1.5490000247955322 -0.8560000061988831,1.5490000247955322 C-0.8560000061988831,1.5490000247955322 -3.5859999656677246,1.5490000247955322 -3.5859999656677246,1.5490000247955322 C-3.5859999656677246,1.5490000247955322 -3.5859999656677246,8.095999717712402 -3.5859999656677246,8.095999717712402 C-3.5859999656677246,8.095999717712402 -5.459000110626221,8.095999717712402 -5.459000110626221,8.095999717712402 C-5.459000110626221,8.095999717712402 -5.459000110626221,-8.095999717712402 -5.459000110626221,-8.095999717712402z M-0.3240000009536743,-0.11599999666213989 C1.5729999542236328,-0.11599999666213989 3.006999969482422,-1.2259999513626099 3.006999969482422,-3.3540000915527344 C3.006999969482422,-5.065999984741211 1.850000023841858,-6.431000232696533 -0.4399999976158142,-6.431000232696533 C-0.4399999976158142,-6.431000232696533 -3.5859999656677246,-6.431000232696533 -3.5859999656677246,-6.431000232696533 C-3.5859999656677246,-6.431000232696533 -3.5859999656677246,-0.11599999666213989 -3.5859999656677246,-0.11599999666213989 C-3.5859999656677246,-0.11599999666213989 -0.3240000009536743,-0.11599999666213989 -0.3240000009536743,-0.11599999666213989z"></path></g><g opacity="1" transform="matrix(1,0,0,1,18.44700050354004,8.345999717712402)"><path fill="rgb(0,0,0)" fill-opacity="1" d=" M-0.9369999766349792,-6.383999824523926 C-0.9369999766349792,-6.383999824523926 -5.656000137329102,-6.383999824523926 -5.656000137329102,-6.383999824523926 C-5.656000137329102,-6.383999824523926 -5.656000137329102,-8.095999717712402 -5.656000137329102,-8.095999717712402 C-5.656000137329102,-8.095999717712402 5.656000137329102,-8.095999717712402 5.656000137329102,-8.095999717712402 C5.656000137329102,-8.095999717712402 5.656000137329102,-6.383999824523926 5.656000137329102,-6.383999824523926 C5.656000137329102,-6.383999824523926 0.9369999766349792,-6.383999824523926 0.9369999766349792,-6.383999824523926 C0.9369999766349792,-6.383999824523926 0.9369999766349792,8.095999717712402 0.9369999766349792,8.095999717712402 C0.9369999766349792,8.095999717712402 -0.9369999766349792,8.095999717712402 -0.9369999766349792,8.095999717712402 C-0.9369999766349792,8.095999717712402 -0.9369999766349792,-6.383999824523926 -0.9369999766349792,-6.383999824523926z"></path></g></g><g style="display: block;" transform="matrix(-0.7660444378852844,-0.6427876353263855,0.6427876353263855,-0.7660444378852844,540,540)" opacity="1"><g opacity="1" transform="matrix(1.0130000114440918,0,0,1.0130000114440918,0,0)"><path stroke-linecap="butt" stroke-linejoin="miter" fill-opacity="0" stroke-miterlimit="4" stroke="rgb(0,0,0)" stroke-opacity="1" stroke-width="10" d=" M2.1982410805380416e-14,-359 C35.08810043334961,-359 78.0374755859375,-353.6365051269531 122.78523254394531,-337.3496398925781 C167.53298950195312,-321.06280517578125 203.8817138671875,-297.56414794921875 230.76075744628906,-275.00994873046875 C257.6398010253906,-252.4557647705078 287.0933532714844,-220.73974609375 310.9031066894531,-179.5 C334.712890625,-138.26025390625 347.4530029296875,-96.89472961425781 353.5459899902344,-62.33969497680664 C359.63897705078125,-27.784664154052734 361.8150329589844,15.443580627441406 353.5459899902344,62.33969497680664 C345.2769470214844,109.23580932617188 328.4471740722656,149.11280822753906 310.9031066894531,179.5 C293.35906982421875,209.88719177246094 267.23944091796875,244.40069580078125 230.76075744628906,275.00994873046875 C194.28204345703125,305.6192321777344 155.75726318359375,325.34881591796875 122.78523254394531,337.3496398925781 C89.81320190429688,349.3504943847656 47.619564056396484,359 -5.773160405677172e-14,359 C-47.619564056396484,359 -89.81320190429688,349.3504943847656 -122.78523254394531,337.3496398925781 C-155.75726318359375,325.34881591796875 -194.28204345703125,305.6192321777344 -230.76075744628906,275.00994873046875 C-267.23944091796875,244.40069580078125 -293.35906982421875,209.88719177246094 -310.9031066894531,179.5 C-328.4471740722656,149.11280822753906 -345.2769470214844,109.23580932617188 -353.5459899902344,62.33969497680664 C-361.8150329589844,15.443580627441406 -359.63897705078125,-27.784664154052734 -353.5459899902344,-62.33969497680664 C-347.4530029296875,-96.89472961425781 -334.712890625,-138.26025390625 -310.9031066894531,-179.5 C-287.0933532714844,-220.73974609375 -257.6398010253906,-252.4557647705078 -230.76075744628906,-275.00994873046875 C-203.8817138671875,-297.56414794921875 -167.53298950195312,-321.06280517578125 -122.78523254394531,-337.3496398925781 C-78.0374755859375,-353.6365051269531 -35.08810043334961,-359 2.1982410805380416e-14,-359z"></path></g></g><g style="display: block;" transform="matrix(-0.7660444378852844,-0.6427876353263855,0.6427876353263855,-0.7660444378852844,540,540)" opacity="1"><g opacity="1" transform="matrix(1.0130000114440918,0,0,1.0130000114440918,0,0)"><path stroke-linecap="butt" stroke-linejoin="miter" fill-opacity="0" stroke-miterlimit="4" stroke="rgb(0,0,0)" stroke-opacity="1" stroke-width="10" d=" M2.208650437833439e-14,-360.70001220703125 C84.9879379272461,-360.70001220703125 219.92034912109375,-337.6867980957031 311.1629333496094,-179.64999389648438 C402.405517578125,-21.613208770751953 354.86932373046875,106.748291015625 312.3753662109375,180.35000610351562 C269.88140869140625,253.9517059326172 182.48516845703125,359.29998779296875 1.0178140340093289e-13,359.29998779296875 C-182.48516845703125,359.29998779296875 -269.88140869140625,253.9517059326172 -312.3753662109375,180.35000610351562 C-354.86932373046875,106.748291015625 -402.405517578125,-21.613208770751953 -311.1629333496094,-179.64999389648438 C-219.92034912109375,-337.6867980957031 -84.9879379272461,-360.70001220703125 2.208650437833439e-14,-360.70001220703125z"></path></g></g></g></svg>