<svg xmlns="http://www.w3.org/2000/svg" xmlns:xlink="http://www.w3.org/1999/xlink" viewBox="0 0 1080 1080" width="1080" height="1080" style="width: 100%; height: 100%; transform: translate3d(0px, 0px, 0px);" preserveAspectRatio="xMidYMid meet"><defs><clipPath id="__lottie_element_42"><rect width="1080" height="1080" x="0" y="0"></rect></clipPath></defs><g clip-path="url(#__lottie_element_42)"><g style="display: block;" transform="matrix(8.34000015258789,0,0,8.34000015258789,422.3043212890625,468.4161682128906)" opacity="1"><g opacity="1" transform="matrix(1,0,0,1,7.247000217437744,8.345999717712402)"><path fill="rgb(0,0,0)" fill-opacity="1" d=" M-6.997000217437744,6.5 C-6.997000217437744,6.5 -5.4720001220703125,6.5 -5.4720001220703125,6.5 C-5.4720001220703125,6.5 -5.4720001220703125,-6.500999927520752 -5.4720001220703125,-6.500999927520752 C-5.4720001220703125,-6.500999927520752 -6.997000217437744,-6.500999927520752 -6.997000217437744,-6.500999927520752 C-6.997000217437744,-6.500999927520752 -6.997000217437744,-8.095999717712402 -6.997000217437744,-8.095999717712402 C-6.997000217437744,-8.095999717712402 -1.121999979019165,-8.095999717712402 -1.121999979019165,-8.095999717712402 C4.013000011444092,-8.095999717712402 6.997000217437744,-4.718999862670898 6.997000217437744,-0.0010000000474974513 C6.997000217437744,5.019999980926514 4.013000011444092,8.095999717712402 -1.121999979019165,8.095999717712402 C-1.121999979019165,8.095999717712402 -6.997000217437744,8.095999717712402 -6.997000217437744,8.095999717712402 C-6.997000217437744,8.095999717712402 -6.997000217437744,6.5 -6.997000217437744,6.5z M-1.121999979019165,6.431000232696533 C2.7179999351501465,6.431000232696533 5.077000141143799,4.071000099182129 5.077000141143799,-0.0010000000474974513 C5.077000141143799,-3.9100000858306885 2.7639999389648438,-6.4079999923706055 -1.121999979019165,-6.4079999923706055 C-1.121999979019165,-6.4079999923706055 -3.5980000495910645,-6.4079999923706055 -3.5980000495910645,-6.4079999923706055 C-3.5980000495910645,-6.4079999923706055 -3.5980000495910645,6.431000232696533 -3.5980000495910645,6.431000232696533 C-3.5980000495910645,6.431000232696533 -1.121999979019165,6.431000232696533 -1.121999979019165,6.431000232696533z"></path></g><g opacity="1" transform="matrix(1,0,0,1,22.333999633789062,10.428000450134277)"><path fill="rgb(0,0,0)" fill-opacity="1" d=" M-5.770999908447266,0.04699999839067459 C-5.770999908447266,-3.7929999828338623 -3.134999990463257,-6.315000057220459 0.05700000002980232,-6.315000057220459 C3.688999891281128,-6.315000057220459 5.770999908447266,-3.7709999084472656 5.770999908447266,-0.16200000047683716 C5.770999908447266,-0.16200000047683716 5.770999908447266,0.5080000162124634 5.770999908447266,0.5080000162124634 C5.770999908447266,0.5080000162124634 -3.8980000019073486,0.5080000162124634 -3.8980000019073486,0.5080000162124634 C-3.875,3.191999912261963 -2.3010001182556152,4.696000099182129 0.19699999690055847,4.696000099182129 C1.8860000371932983,4.696000099182129 3.436000108718872,3.7239999771118164 3.8289999961853027,2.058000087738037 C3.8289999961853027,2.058000087738037 5.609000205993652,2.4749999046325684 5.609000205993652,2.4749999046325684 C4.938000202178955,4.7179999351501465 2.9489998817443848,6.315000057220459 0.17299999296665192,6.315000057220459 C-3.4820001125335693,6.315000057220459 -5.770999908447266,3.747999906539917 -5.770999908447266,0.04699999839067459z M3.8980000019073486,-0.972000002861023 C3.7829999923706055,-3.4700000286102295 2.0460000038146973,-4.672999858856201 0.05700000002980232,-4.672999858856201 C-1.909000039100647,-4.672999858856201 -3.7130000591278076,-3.239000082015991 -3.8519999980926514,-0.972000002861023 C-3.8519999980926514,-0.972000002861023 3.8980000019073486,-0.972000002861023 3.8980000019073486,-0.972000002861023z"></path></g></g><g style="display: block;" transform="matrix(-0.7660444378852844,-0.6427876353263855,0.6427876353263855,-0.7660444378852844,540,540)" opacity="1"><g opacity="1" transform="matrix(1.0130000114440918,0,0,1.0130000114440918,0,0)"><path stroke-linecap="butt" stroke-linejoin="miter" fill-opacity="0" stroke-miterlimit="4" stroke="rgb(0,0,0)" stroke-opacity="1" stroke-width="10" d=" M2.1982410805380416e-14,-359 C78.94822692871094,-359 178.0890655517578,-329.61358642578125 253.85133361816406,-253.85133361816406 C329.61358642578125,-178.0890655517578 359,-78.94822692871094 359,0 C359,78.94822692871094 329.61358642578125,178.0890655517578 253.85133361816406,253.85133361816406 C178.0890655517578,329.61358642578125 78.94822692871094,359 2.1982410805380416e-14,359 C-78.94822692871094,359 -178.0890655517578,329.61358642578125 -253.85133361816406,253.85133361816406 C-329.61358642578125,178.0890655517578 -359,78.94822692871094 -359,4.396482161076083e-14 C-359,-78.94822692871094 -329.61358642578125,-178.0890655517578 -253.85133361816406,-253.85133361816406 C-178.0890655517578,-329.61358642578125 -78.94822692871094,-359 2.1982410805380416e-14,-359z"></path></g></g><g style="display: block;" transform="matrix(-0.08715574443340302,-0.9961947202682495,0.9961947202682495,-0.08715574443340302,540,540)" opacity="1"><g opacity="1" transform="matrix(1.0130000114440918,0,0,1.0130000114440918,0,0)"><path stroke-linecap="butt" stroke-linejoin="miter" fill-opacity="0" stroke-miterlimit="4" stroke="rgb(0,0,0)" stroke-opacity="1" stroke-width="10" d=" M2.1982410805380416e-14,-359 C78.94822692871094,-359 178.0890655517578,-329.61358642578125 253.85133361816406,-253.85133361816406 C329.61358642578125,-178.0890655517578 359,-78.94822692871094 359,0 C359,78.94822692871094 329.61358642578125,178.0890655517578 253.85133361816406,253.85133361816406 C178.0890655517578,329.61358642578125 78.94822692871094,359 2.1982410805380416e-14,359 C-78.94822692871094,359 -178.0890655517578,329.61358642578125 -253.85133361816406,253.85133361816406 C-329.61358642578125,178.0890655517578 -359,78.94822692871094 -359,4.396482161076083e-14 C-359,-78.94822692871094 -329.61358642578125,-178.0890655517578 -253.85133361816406,-253.85133361816406 C-178.0890655517578,-329.61358642578125 -78.94822692871094,-359 2.1982410805380416e-14,-359z"></path></g></g></g></svg>